<mxfile host="app.diagrams.net" modified="2021-11-07T10:39:16.706Z" agent="5.0 (Windows NT 10.0; Win64; x64) AppleWebKit/537.36 (KHTML, like Gecko) Chrome/95.0.4638.69 Safari/537.36 Edg/95.0.1020.44" etag="9-Ffdko9lKAXRNmO9M7b" version="15.7.0" type="github">
  <diagram id="C5RBs43oDa-KdzZeNtuy" name="Page-1">
    <mxGraphModel dx="868" dy="1619" grid="1" gridSize="10" guides="1" tooltips="1" connect="1" arrows="1" fold="1" page="1" pageScale="1" pageWidth="827" pageHeight="1169" math="0" shadow="0">
      <root>
        <mxCell id="WIyWlLk6GJQsqaUBKTNV-0" />
        <mxCell id="WIyWlLk6GJQsqaUBKTNV-1" parent="WIyWlLk6GJQsqaUBKTNV-0" />
        <mxCell id="2yxBq9Ie8vOKMowmc9vQ-0" value="START" style="ellipse;whiteSpace=wrap;html=1;" vertex="1" parent="WIyWlLk6GJQsqaUBKTNV-1">
          <mxGeometry x="50" y="-10" width="120" height="80" as="geometry" />
        </mxCell>
        <mxCell id="2yxBq9Ie8vOKMowmc9vQ-1" value="INPUT StudentName,&lt;br&gt;&amp;nbsp;PG, MG, FG" style="shape=parallelogram;perimeter=parallelogramPerimeter;whiteSpace=wrap;html=1;fixedSize=1;" vertex="1" parent="WIyWlLk6GJQsqaUBKTNV-1">
          <mxGeometry x="180" y="70" width="150" height="60" as="geometry" />
        </mxCell>
        <mxCell id="2yxBq9Ie8vOKMowmc9vQ-2" value="CALCULATE FinalGrades = PG + MG + FG" style="rounded=0;whiteSpace=wrap;html=1;" vertex="1" parent="WIyWlLk6GJQsqaUBKTNV-1">
          <mxGeometry x="180" y="180" width="120" height="60" as="geometry" />
        </mxCell>
        <mxCell id="2yxBq9Ie8vOKMowmc9vQ-3" value="FinalGrades &lt;br&gt;&amp;lt;= 74" style="rhombus;whiteSpace=wrap;html=1;" vertex="1" parent="WIyWlLk6GJQsqaUBKTNV-1">
          <mxGeometry x="310" y="240" width="110" height="100" as="geometry" />
        </mxCell>
        <mxCell id="2yxBq9Ie8vOKMowmc9vQ-4" value="&lt;span&gt;DISPLAY&lt;/span&gt;&lt;br&gt;&lt;span&gt;StudentName,&lt;/span&gt;&lt;br&gt;&lt;span&gt;FinalGrades,&lt;/span&gt;&lt;br&gt;&lt;span&gt;&quot;PASSED&quot;&lt;/span&gt;" style="shape=parallelogram;perimeter=parallelogramPerimeter;whiteSpace=wrap;html=1;fixedSize=1;" vertex="1" parent="WIyWlLk6GJQsqaUBKTNV-1">
          <mxGeometry x="440" y="359" width="160" height="80" as="geometry" />
        </mxCell>
        <mxCell id="2yxBq9Ie8vOKMowmc9vQ-5" value="END" style="ellipse;whiteSpace=wrap;html=1;" vertex="1" parent="WIyWlLk6GJQsqaUBKTNV-1">
          <mxGeometry x="670" y="250" width="120" height="80" as="geometry" />
        </mxCell>
        <mxCell id="2yxBq9Ie8vOKMowmc9vQ-6" value="DISPLAY &lt;br&gt;StudentName, &lt;br&gt;FinalGrades,&lt;br&gt;&quot;NOT PASSED&quot;" style="shape=parallelogram;perimeter=parallelogramPerimeter;whiteSpace=wrap;html=1;fixedSize=1;" vertex="1" parent="WIyWlLk6GJQsqaUBKTNV-1">
          <mxGeometry x="480" y="120" width="170" height="80" as="geometry" />
        </mxCell>
        <mxCell id="2yxBq9Ie8vOKMowmc9vQ-7" value="" style="endArrow=classic;html=1;rounded=0;exitX=0.5;exitY=1;exitDx=0;exitDy=0;entryX=0.027;entryY=0.5;entryDx=0;entryDy=0;entryPerimeter=0;" edge="1" parent="WIyWlLk6GJQsqaUBKTNV-1" source="2yxBq9Ie8vOKMowmc9vQ-0" target="2yxBq9Ie8vOKMowmc9vQ-1">
          <mxGeometry width="50" height="50" relative="1" as="geometry">
            <mxPoint x="390" y="240" as="sourcePoint" />
            <mxPoint x="440" y="190" as="targetPoint" />
          </mxGeometry>
        </mxCell>
        <mxCell id="2yxBq9Ie8vOKMowmc9vQ-8" value="" style="endArrow=classic;html=1;rounded=0;exitX=0.4;exitY=1;exitDx=0;exitDy=0;exitPerimeter=0;" edge="1" parent="WIyWlLk6GJQsqaUBKTNV-1" source="2yxBq9Ie8vOKMowmc9vQ-1" target="2yxBq9Ie8vOKMowmc9vQ-2">
          <mxGeometry width="50" height="50" relative="1" as="geometry">
            <mxPoint x="390" y="240" as="sourcePoint" />
            <mxPoint x="440" y="190" as="targetPoint" />
          </mxGeometry>
        </mxCell>
        <mxCell id="2yxBq9Ie8vOKMowmc9vQ-9" value="" style="endArrow=classic;html=1;rounded=0;exitX=0.5;exitY=1;exitDx=0;exitDy=0;entryX=0;entryY=0.5;entryDx=0;entryDy=0;" edge="1" parent="WIyWlLk6GJQsqaUBKTNV-1" source="2yxBq9Ie8vOKMowmc9vQ-2" target="2yxBq9Ie8vOKMowmc9vQ-3">
          <mxGeometry width="50" height="50" relative="1" as="geometry">
            <mxPoint x="390" y="240" as="sourcePoint" />
            <mxPoint x="440" y="190" as="targetPoint" />
          </mxGeometry>
        </mxCell>
        <mxCell id="2yxBq9Ie8vOKMowmc9vQ-10" value="&lt;span style=&quot;font-size: 14px&quot;&gt;TRUE&lt;/span&gt;" style="endArrow=classic;html=1;rounded=0;entryX=0;entryY=0.5;entryDx=0;entryDy=0;exitX=1;exitY=0;exitDx=0;exitDy=0;" edge="1" parent="WIyWlLk6GJQsqaUBKTNV-1" source="2yxBq9Ie8vOKMowmc9vQ-3" target="2yxBq9Ie8vOKMowmc9vQ-6">
          <mxGeometry width="50" height="50" relative="1" as="geometry">
            <mxPoint x="390" y="240" as="sourcePoint" />
            <mxPoint x="440" y="190" as="targetPoint" />
            <Array as="points" />
          </mxGeometry>
        </mxCell>
        <mxCell id="2yxBq9Ie8vOKMowmc9vQ-11" value="&lt;font style=&quot;font-size: 14px&quot;&gt;FALSE&lt;/font&gt;" style="endArrow=classic;html=1;rounded=0;exitX=1;exitY=1;exitDx=0;exitDy=0;entryX=0;entryY=0.5;entryDx=0;entryDy=0;" edge="1" parent="WIyWlLk6GJQsqaUBKTNV-1" source="2yxBq9Ie8vOKMowmc9vQ-3" target="2yxBq9Ie8vOKMowmc9vQ-4">
          <mxGeometry width="50" height="50" relative="1" as="geometry">
            <mxPoint x="390" y="240" as="sourcePoint" />
            <mxPoint x="440" y="190" as="targetPoint" />
          </mxGeometry>
        </mxCell>
        <mxCell id="2yxBq9Ie8vOKMowmc9vQ-12" value="" style="endArrow=classic;html=1;rounded=0;fontSize=14;exitX=1;exitY=0.5;exitDx=0;exitDy=0;entryX=0.5;entryY=0;entryDx=0;entryDy=0;" edge="1" parent="WIyWlLk6GJQsqaUBKTNV-1" source="2yxBq9Ie8vOKMowmc9vQ-6" target="2yxBq9Ie8vOKMowmc9vQ-5">
          <mxGeometry width="50" height="50" relative="1" as="geometry">
            <mxPoint x="390" y="230" as="sourcePoint" />
            <mxPoint x="440" y="180" as="targetPoint" />
          </mxGeometry>
        </mxCell>
        <mxCell id="2yxBq9Ie8vOKMowmc9vQ-13" value="" style="endArrow=classic;html=1;rounded=0;fontSize=14;exitX=1;exitY=0.5;exitDx=0;exitDy=0;entryX=0.342;entryY=0.963;entryDx=0;entryDy=0;entryPerimeter=0;" edge="1" parent="WIyWlLk6GJQsqaUBKTNV-1" source="2yxBq9Ie8vOKMowmc9vQ-4" target="2yxBq9Ie8vOKMowmc9vQ-5">
          <mxGeometry width="50" height="50" relative="1" as="geometry">
            <mxPoint x="390" y="230" as="sourcePoint" />
            <mxPoint x="440" y="180" as="targetPoint" />
          </mxGeometry>
        </mxCell>
      </root>
    </mxGraphModel>
  </diagram>
</mxfile>
